#N canvas 140 355 384 338 10;
#X obj 2 318 outlet~;
#X obj 3 232 +~;
#X obj 5 13 inlet~;
#X obj 32 173 sig~;
#X obj 38 201 waveformselector;
#X obj 288 44 r vibrato_onoff;
#X obj 305 210 switch~;
#X obj 56 10 r vibspeed\$1;
#X obj 124 35 r vibdepth\$1;
#X obj 155 54 r vibwaveform\$1;
#X obj 193 72 r vibwaveformx\$1;
#X obj 40 130 - 30;
#X obj 38 151 mtof;
#X obj 35 91 loadbang;
#X obj 40 111 0.2;
#X obj 78 112 100;
#X obj 86 150 / -200;
#X connect 1 0 0 0;
#X connect 2 0 1 0;
#X connect 3 0 4 0;
#X connect 4 0 1 1;
#X connect 5 0 6 0;
#X connect 7 0 11 0;
#X connect 8 0 16 0;
#X connect 9 0 4 2;
#X connect 10 0 4 3;
#X connect 11 0 12 0;
#X connect 12 0 3 0;
#X connect 13 0 14 0;
#X connect 13 0 15 0;
#X connect 14 0 3 0;
#X connect 15 0 16 0;
#X connect 16 0 4 1;
