#N canvas 0 22 425 415 10;
#X obj 136 308 *~;
#X obj 360 213 loadbang;
#X obj 116 37 r inssel;
#X obj 37 332 lop~;
#X obj -3 8 r pitch\$1;
#X obj 229 232 r amp\$1;
#X obj 19 113 r filt\$1;
#X obj 11 385 outlet~;
#X obj 49 67 tremolo \$1;
#X obj 52 43 sig~;
#X obj 13 162 * 0.5;
#X obj 2 95 mtof;
#X obj 198 109 r attack\$1;
#X obj 309 111 r decay\$1;
#X obj 170 88 r noteon\$1;
#X obj 282 92 r noteoff\$1;
#X text 164 58 attack and decay... no sustain/release;
#X msg 292 182 0 \$2;
#X msg 168 176 1 \$2;
#X obj 294 156 pack f f;
#X obj 190 146 pack f f;
#X obj 340 248 1;
#X msg 368 241 0;
#X obj 165 211 line~;
#X obj 164 275 *~ 1;
#X obj 42 94 mtof~;
#X obj 57 257 print;
#X obj 33 143 t b f;
#X obj 73 118 waveformselector 0;
#X obj 125 77 - 1;
#X connect 0 0 3 0;
#X connect 1 0 22 0;
#X connect 1 0 21 0;
#X connect 2 0 29 0;
#X connect 3 0 7 0;
#X connect 4 0 9 0;
#X connect 4 0 11 0;
#X connect 5 0 24 1;
#X connect 6 0 27 0;
#X connect 8 0 25 0;
#X connect 9 0 8 0;
#X connect 10 0 3 1;
#X connect 10 0 26 0;
#X connect 11 0 10 0;
#X connect 12 0 20 1;
#X connect 13 0 19 1;
#X connect 14 0 20 0;
#X connect 15 0 19 0;
#X connect 17 0 23 0;
#X connect 18 0 23 0;
#X connect 19 0 17 0;
#X connect 20 0 18 0;
#X connect 21 0 24 1;
#X connect 22 0 23 0;
#X connect 23 0 24 0;
#X connect 24 0 0 1;
#X connect 25 0 28 0;
#X connect 27 0 10 0;
#X connect 27 1 10 1;
#X connect 28 0 0 0;
#X connect 29 0 28 2;
