#N canvas 0 22 450 300 10;
#X obj 9 35 mtof;
#X obj 81 87 *~;
#X obj 107 57 loadbang;
#X obj 108 79 0;
#X obj 19 60 waveforms;
#X obj 42 34 r inssel;
#X obj 77 153 lop~;
#X obj 20 138 * 0.5;
#X obj 13 11 r pitch\$1;
#X obj 98 36 r amp\$1;
#X obj 28 107 r filt\$1;
#X obj 72 217 outlet~;
#X connect 0 0 4 0;
#X connect 0 0 7 0;
#X connect 1 0 6 0;
#X connect 2 0 3 0;
#X connect 3 0 1 1;
#X connect 4 0 1 0;
#X connect 5 0 4 1;
#X connect 6 0 11 0;
#X connect 7 0 6 1;
#X connect 8 0 0 0;
#X connect 9 0 1 1;
#X connect 10 0 7 1;
