#N canvas 0 22 529 354 10;
#X obj 74 30 inlet~;
#X obj 80 268 writesf~;
#X msg 285 118 open -bytes 2 \$1;
#X obj 285 93 r record_filename;
#X obj 290 154 r record_start;
#X msg 289 177 start;
#X obj 291 207 r record_stop;
#X msg 291 230 stop;
#X obj 389 231 print rec:;
#X obj 392 258 print start:;
#X obj 393 289 print stop:;
#X connect 0 0 1 0;
#X connect 2 0 1 0;
#X connect 2 0 8 0;
#X connect 3 0 2 0;
#X connect 4 0 5 0;
#X connect 5 0 1 0;
#X connect 5 0 9 0;
#X connect 6 0 7 0;
#X connect 7 0 1 0;
#X connect 7 0 10 0;
