#N canvas 331 117 697 561 10;
#X obj 396 504 dac~;
#X obj 408 225 *~;
#X obj 404 425 *~ 0.3;
#X obj 498 427 loadbang;
#X obj 498 469 delread~ test_del 1000;
#X obj 473 408 delwrite~ test_del 1000;
#X obj 578 286 loadbang;
#X obj 502 328 delread~ test_del 1000;
#X obj 476 258 delwrite~ test_del 1000;
#X obj 571 307 1000;
#X obj 499 384 *~ 0.4;
#X obj 498 447 20;
#X obj 497 490 *~ 0.7;
#X obj 487 222 1;
#X obj 512 221 loadbang;
#X obj 502 306 * 100;
#X obj 542 370 / 100;
#X obj 332 532 s mainlevel;
#X obj 298 506 env~ 16384 8192;
#X obj 374 472 clip~ -1 1;
#X obj 44 79 multisynth 1;
#X obj 442 231 r ampglob;
#X obj 532 348 r delayfeedback;
#X obj 497 281 r delaytime;
#X obj 152 90 multisynth 2;
#X obj 236 92 multisynth 3;
#X obj 325 94 multisynth 4;
#X obj 95 191 vibrato 1;
#X obj 178 175 vibrato 2;
#X obj 256 171 vibrato 3;
#X obj 331 169 vibrato 4;
#X connect 1 0 8 0;
#X connect 1 0 5 0;
#X connect 1 0 2 0;
#X connect 2 0 19 0;
#X connect 3 0 11 0;
#X connect 4 0 12 0;
#X connect 6 0 9 0;
#X connect 7 0 10 0;
#X connect 9 0 7 0;
#X connect 10 0 8 0;
#X connect 10 0 2 0;
#X connect 11 0 4 0;
#X connect 12 0 5 0;
#X connect 12 0 2 0;
#X connect 13 0 1 1;
#X connect 14 0 13 0;
#X connect 15 0 7 0;
#X connect 16 0 10 1;
#X connect 18 0 17 0;
#X connect 19 0 0 0;
#X connect 19 0 0 1;
#X connect 19 0 18 0;
#X connect 20 0 27 0;
#X connect 21 0 1 1;
#X connect 22 0 16 0;
#X connect 23 0 15 0;
#X connect 24 0 28 0;
#X connect 25 0 29 0;
#X connect 26 0 30 0;
#X connect 27 0 1 0;
#X connect 28 0 1 0;
#X connect 29 0 1 0;
#X connect 30 0 1 0;
