#N canvas 91 110 697 561 10;
#X obj 55 509 dac~;
#X obj 67 230 *~;
#X obj 101 236 r amp;
#X obj 68 475 *~ 0.3;
#X obj 157 432 loadbang;
#X obj 157 474 delread~ test_del 1000;
#X obj 132 413 delwrite~ test_del 1000;
#X obj 219 291 loadbang;
#X obj 161 333 delread~ test_del 1000;
#X obj 135 263 delwrite~ test_del 1000;
#X obj 218 312 1000;
#X obj 158 389 *~ 0.4;
#X obj 157 452 20;
#X obj 156 495 *~ 0.7;
#X obj 146 227 1;
#X obj 171 226 loadbang;
#X obj 174 37 mtof;
#X obj 250 88 *~;
#X obj 276 58 loadbang;
#X obj 277 80 0;
#X obj 330 36 mtof;
#X obj 414 87 *~;
#X obj 440 57 loadbang;
#X obj 441 79 0;
#X obj 504 39 mtof;
#X obj 591 95 *~;
#X obj 617 65 loadbang;
#X obj 618 87 0;
#X obj 9 35 mtof;
#X obj 13 11 r pitch1;
#X obj 81 87 *~;
#X obj 98 36 r amp1;
#X obj 107 57 loadbang;
#X obj 108 79 0;
#X obj 192 13 r pitch2;
#X obj 266 38 r amp2;
#X obj 356 9 r pitch3;
#X obj 431 36 r amp3;
#X obj 537 13 r pitch4;
#X obj 608 44 r amp4;
#X obj 157 287 r param1;
#X obj 161 311 * 100;
#X obj 191 353 r param2;
#X obj 201 375 / 100;
#X obj 19 60 waveforms;
#X obj 42 34 r inssel;
#X obj 210 38 r inssel;
#X obj 369 36 r inssel;
#X obj 551 38 r inssel;
#X obj 176 64 osc~;
#X obj 13 290 snapshot~;
#X floatatom 19 335 5 0 0 0 - - -;
#X obj 360 60 waveforms;
#X obj 541 64 waveforms;
#X msg 34 167 bang;
#X obj 16 199 metro 100;
#X obj 499 480 s inssel;
#X obj 399 363 vsl 15 128 0 127 0 0 empty empty empty 0 -9 0 10 -262144
-1 -1 0 1;
#X obj 555 366 vsl 15 128 0 127 0 0 empty empty empty 0 -9 0 10 -262144
-1 -1 0 1;
#X obj 581 439 / 127;
#X msg 452 413 1;
#X msg 489 415 2;
#X obj 416 285 s pitch1;
#X obj 577 287 s amp1;
#X obj 494 286 s inssel;
#X obj 394 169 vsl 15 128 0 127 0 0 empty empty empty 0 -9 0 10 -262144
-1 -1 0 1;
#X obj 550 172 vsl 15 128 0 127 0 0 empty empty empty 0 -9 0 10 -262144
-1 -1 3000 1;
#X obj 576 245 / 127;
#X msg 447 219 1;
#X msg 484 221 2;
#X obj 421 479 s pitch2;
#X obj 582 481 s amp2;
#X msg 513 221 3;
#X connect 1 0 9 0;
#X connect 1 0 6 0;
#X connect 1 0 3 0;
#X connect 1 0 50 0;
#X connect 2 0 1 1;
#X connect 3 0 0 0;
#X connect 3 0 0 1;
#X connect 4 0 12 0;
#X connect 5 0 13 0;
#X connect 7 0 10 0;
#X connect 8 0 11 0;
#X connect 10 0 8 0;
#X connect 11 0 9 0;
#X connect 11 0 3 0;
#X connect 12 0 5 0;
#X connect 13 0 6 0;
#X connect 13 0 3 0;
#X connect 14 0 1 1;
#X connect 15 0 14 0;
#X connect 16 0 49 0;
#X connect 17 0 1 0;
#X connect 18 0 19 0;
#X connect 19 0 17 1;
#X connect 20 0 52 0;
#X connect 21 0 1 0;
#X connect 22 0 23 0;
#X connect 23 0 21 1;
#X connect 24 0 53 0;
#X connect 25 0 1 0;
#X connect 26 0 27 0;
#X connect 27 0 25 1;
#X connect 28 0 44 0;
#X connect 29 0 28 0;
#X connect 30 0 1 0;
#X connect 31 0 30 1;
#X connect 32 0 33 0;
#X connect 33 0 30 1;
#X connect 34 0 16 0;
#X connect 35 0 17 1;
#X connect 36 0 20 0;
#X connect 37 0 21 1;
#X connect 38 0 24 0;
#X connect 39 0 25 1;
#X connect 40 0 41 0;
#X connect 41 0 8 0;
#X connect 42 0 43 0;
#X connect 43 0 11 1;
#X connect 44 0 30 0;
#X connect 45 0 44 1;
#X connect 46 0 49 1;
#X connect 47 0 52 1;
#X connect 48 0 53 1;
#X connect 49 0 17 0;
#X connect 50 0 51 0;
#X connect 52 0 21 0;
#X connect 53 0 25 0;
#X connect 54 0 55 0;
#X connect 55 0 50 0;
#X connect 57 0 70 0;
#X connect 58 0 59 0;
#X connect 59 0 71 0;
#X connect 60 0 56 0;
#X connect 61 0 56 0;
#X connect 65 0 62 0;
#X connect 66 0 67 0;
#X connect 67 0 63 0;
#X connect 68 0 64 0;
#X connect 69 0 64 0;
#X connect 72 0 64 0;
