#N canvas 0 22 450 300 10;
#X obj 173 221 dac~;
#X obj 171 122 * 10;
#X obj 127 12 vsl 15 128 0 127 0 0 empty empty empty 0 -9 0 10 -262144
-1 -1 1800 1;
#X msg 219 111 1;
#X obj 176 151 waveforms;
#X connect 1 0 4 0;
#X connect 2 0 1 0;
#X connect 3 0 4 1;
#X connect 4 0 0 0;
#X connect 4 0 0 1;
