#N canvas 516 291 567 365 10;
#X obj 29 43 inlet~;
#X obj 40 205 outlet~;
#N canvas 0 22 450 300 vib 1;
#X obj 29 43 inlet~;
#X obj 40 205 outlet~;
#X obj 125 137 osc~;
#X obj 42 121 *~;
#X obj 75 3 r vibspeed\$1;
#X obj 215 8 r vibdepth\$1;
#X obj 142 63 loadbang;
#X obj 230 49 loadbang;
#X msg 149 89 0.2;
#X obj 98 82 mtof;
#X obj 128 222 +~ 1;
#X obj 125 192 *~ -0.5;
#X obj 180 128 / -200;
#X obj 96 49 - 30;
#X msg 240 85 100;
#X obj 125 166 +~ 1;
#X obj 295 118 r vibrato_onoff;
#X obj 309 157 switch~;
#X obj 125 111 sig~;
#X connect 0 0 3 0;
#X connect 2 0 15 0;
#X connect 3 0 1 0;
#X connect 4 0 13 0;
#X connect 5 0 12 0;
#X connect 6 0 8 0;
#X connect 7 0 14 0;
#X connect 9 0 18 0;
#X connect 10 0 3 1;
#X connect 11 0 10 0;
#X connect 12 0 11 1;
#X connect 13 0 9 0;
#X connect 14 0 12 0;
#X connect 15 0 11 0;
#X connect 16 0 17 0;
#X connect 18 0 2 0;
#X restore 64 118 pd vib;
#N canvas 0 22 450 300 notvib 0;
#X obj 29 43 inlet~;
#X obj 40 205 outlet~;
#X obj 292 225 switch~;
#X obj 287 103 r vibrato_onoff;
#X obj 284 165 - 1;
#X obj 292 200 abs;
#X obj 323 202 print wtf?;
#X connect 0 0 1 0;
#X connect 3 0 4 0;
#X connect 4 0 5 0;
#X connect 5 0 2 0;
#X connect 5 0 6 0;
#X restore 160 75 pd notvib;
#X connect 0 0 2 0;
#X connect 0 0 3 0;
#X connect 2 0 1 0;
#X connect 3 0 1 0;
