#N canvas 0 22 384 338 10;
#X obj 96 14 inlet~;
#X obj 115 270 outlet~;
#X obj 122 246 +~;
#X obj 162 17 inlet;
#X obj 22 15 inlet~;
#X obj 221 16 inlet;
#X obj 331 17 inlet;
#X obj 165 138 waveformselector \$1;
#X obj 271 17 inlet;
#X obj 161 193 *~ 1;
#X obj 328 46 loadbang;
#X obj 329 98 + 1;
#X obj 331 71 \$2;
#X connect 0 0 7 0;
#X connect 2 0 1 0;
#X connect 3 0 7 1;
#X connect 4 0 2 0;
#X connect 5 0 7 2;
#X connect 6 0 9 1;
#X connect 7 0 9 0;
#X connect 8 0 7 3;
#X connect 9 0 2 1;
#X connect 10 0 12 0;
#X connect 11 0 9 1;
#X connect 12 0 11 0;
