#N canvas 432 456 450 300 10;
#X obj 36 15 inlet~;
#N canvas 117 284 450 300 tri 0;
#X obj 77 45 inlet~;
#X obj 74 204 outlet~;
#X obj 290 137 switch~;
#X obj 291 100 inlet;
#X obj 88 152 *~ 2;
#X obj 87 173 -~ 1;
#X obj 83 118 tri~;
#X connect 0 0 6 0;
#X connect 3 0 2 0;
#X connect 4 0 5 0;
#X connect 5 0 1 0;
#X connect 6 0 4 0;
#X restore 200 175 pd tri;
#N canvas 127 442 450 300 square 0;
#X obj 77 45 inlet~;
#X obj 74 204 outlet~;
#X obj 290 137 switch~;
#X obj 291 100 inlet;
#X obj 125 45 loadbang;
#X msg 120 67 0.5;
#X obj 87 153 *~ -2;
#X obj 87 173 +~ 1;
#X obj 118 91 sig~;
#X obj 193 47 inlet;
#X obj 84 117 pwm2~;
#X connect 0 0 10 0;
#X connect 3 0 2 0;
#X connect 4 0 5 0;
#X connect 5 0 8 0;
#X connect 6 0 7 0;
#X connect 7 0 1 0;
#X connect 8 0 10 1;
#X connect 9 0 8 0;
#X connect 10 0 6 0;
#X restore 249 176 pd square;
#N canvas 482 289 450 300 saw 0;
#X obj 77 45 inlet~;
#X obj 74 204 outlet~;
#X obj 290 137 switch~;
#X obj 291 100 inlet;
#X obj 84 118 phasor~;
#X obj 88 152 *~ 2;
#X obj 87 173 -~ 1;
#X connect 0 0 4 0;
#X connect 3 0 2 0;
#X connect 4 0 5 0;
#X connect 5 0 6 0;
#X connect 6 0 1 0;
#X restore 313 177 pd saw;
#N canvas 494 107 450 300 sine 0;
#X obj 77 45 inlet~;
#X obj 74 204 outlet~;
#X obj 290 137 switch~;
#X obj 289 66 inlet;
#X obj 84 118 osc~;
#X connect 0 0 4 0;
#X connect 3 0 2 0;
#X connect 4 0 1 0;
#X restore 149 174 pd sine;
#X msg 272 98 1;
#X msg 330 96 1;
#X msg 304 97 1;
#X msg 357 97 1;
#X obj 262 59 t f b;
#X msg 240 99 0;
#X obj 173 51 loadbang;
#X obj 172 73 \$1;
#X obj 102 18 inlet;
#X obj 161 17 inlet;
#X obj 56 259 outlet~;
#X obj 93 217 *~ 1;
#N canvas 338 276 450 300 noise 0;
#X obj 77 45 inlet~;
#X obj 53 274 outlet~;
#X obj 290 137 switch~;
#X obj 291 100 inlet;
#X obj 82 118 noise~;
#X obj 198 53 inlet;
#X obj 82 164 samphold~;
#X obj 137 125 phasor~ 440;
#X obj 74 215 *~ 1;
#X connect 0 0 7 0;
#X connect 3 0 2 0;
#X connect 4 0 6 0;
#X connect 6 0 8 0;
#X connect 7 0 6 1;
#X connect 8 0 1 0;
#X restore 361 179 pd noise;
#X msg 387 98 1;
#X obj 307 56 route 0 1 2 3 4;
#X obj 223 13 inlet;
#X connect 0 0 2 0;
#X connect 0 0 3 0;
#X connect 0 0 1 0;
#X connect 0 0 4 0;
#X connect 0 0 17 0;
#X connect 1 0 16 0;
#X connect 2 0 16 0;
#X connect 3 0 16 0;
#X connect 4 0 16 0;
#X connect 5 0 4 1;
#X connect 6 0 2 2;
#X connect 7 0 1 1;
#X connect 8 0 3 1;
#X connect 9 0 19 0;
#X connect 9 1 10 0;
#X connect 10 0 2 2;
#X connect 10 0 3 1;
#X connect 10 0 1 1;
#X connect 10 0 4 1;
#X connect 10 0 17 2;
#X connect 11 0 12 0;
#X connect 12 0 9 0;
#X connect 13 0 16 1;
#X connect 14 0 9 0;
#X connect 16 0 15 0;
#X connect 17 0 16 0;
#X connect 18 0 17 2;
#X connect 19 0 5 0;
#X connect 19 1 7 0;
#X connect 19 2 6 0;
#X connect 19 3 8 0;
#X connect 19 4 18 0;
#X connect 20 0 2 1;
#X connect 20 0 17 1;
