#N canvas 0 22 511 433 10;
#X obj 331 71 route 1 2 3 4;
#X obj 369 35 inlet;
#X obj 100 138 loadbang;
#X obj 198 316 outlet~;
#X obj 184 150 inlet~;
#N canvas 319 243 201 184 sine 0;
#X obj 51 50 inlet~;
#X obj 52 84 osc~;
#X obj 52 126 outlet~;
#X obj 127 51 inlet;
#X obj 132 87 switch~;
#X connect 0 0 1 0;
#X connect 1 0 2 0;
#X connect 3 0 4 0;
#X restore 65 194 pd sine;
#N canvas 319 243 201 184 triangle 0;
#X obj 51 50 inlet~;
#X obj 52 84 osc~;
#X obj 52 126 outlet~;
#X obj 127 51 inlet;
#X obj 132 87 switch~;
#X connect 0 0 1 0;
#X connect 1 0 2 0;
#X connect 3 0 4 0;
#X restore 137 192 pd triangle;
#N canvas 319 243 201 184 square 1;
#X obj 51 50 inlet~;
#X obj 52 84 osc~;
#X obj 52 126 outlet~;
#X obj 127 51 inlet;
#X obj 132 87 switch~;
#X connect 0 0 1 0;
#X connect 1 0 2 0;
#X connect 3 0 4 0;
#X restore 225 192 pd square;
#N canvas 319 243 201 184 sawtooth 0;
#X obj 51 50 inlet~;
#X obj 52 84 osc~;
#X obj 52 126 outlet~;
#X obj 127 51 inlet;
#X obj 132 87 switch~;
#X connect 0 0 1 0;
#X connect 1 0 2 0;
#X connect 3 0 4 0;
#X restore 307 192 pd sawtooth;
#X connect 1 0 0 0;
#X connect 2 0 5 1;
#X connect 4 0 6 0;
#X connect 4 0 7 0;
#X connect 4 0 8 0;
#X connect 4 0 5 0;
#X connect 5 0 3 0;
#X connect 6 0 3 0;
#X connect 7 0 3 0;
#X connect 8 0 3 0;
