#N canvas 59 129 831 599 10;
#X obj 400 546 dac~;
#X obj 414 231 *~;
#X obj 487 222 1;
#X obj 512 221 loadbang;
#X obj 325 570 s mainlevel;
#X obj 378 514 clip~ -1 1;
#X obj 431 184 r ampglob;
#X obj 489 178 tables;
#X obj 292 543 env~ 4096 1024;
#X obj 404 424 *~ 0.14;
#X obj 25 218 vibrato 1;
#X obj -13 198 multisynth1.1 1;
#N canvas 0 22 450 300 delay 0;
#X obj -18 45 inlet~;
#X obj -3 251 outlet~;
#X obj 187 111 loadbang;
#X obj 180 132 1000;
#X obj 108 209 *~ 0.4;
#X obj 111 131 * 100;
#X obj 151 195 / 100;
#X obj 141 173 r delayfeedback;
#X obj 106 106 r delaytime;
#X obj 84 83 delwrite~ delaytab 44100;
#X obj 111 153 delread~ delaytab 1000;
#X obj 107 52 table delaytab 44100;
#X obj 281 54 r delay_onoff;
#X obj 287 105 switch~;
#X connect 0 0 9 0;
#X connect 2 0 3 0;
#X connect 3 0 10 0;
#X connect 4 0 9 0;
#X connect 4 0 1 0;
#X connect 5 0 10 0;
#X connect 6 0 4 1;
#X connect 7 0 6 0;
#X connect 8 0 5 0;
#X connect 10 0 4 0;
#X connect 12 0 13 0;
#X restore 466 293 pd delay;
#N canvas 92 362 450 300 reverb 0;
#X obj 67 41 inlet~;
#X obj 82 247 outlet~;
#X obj 133 94 loadbang;
#X obj 133 114 20;
#X obj 132 157 *~ 0.7;
#X obj 208 105 r reverbtime;
#X obj 194 166 r reverbfeedback;
#X obj 191 191 / 100;
#X obj 115 78 delwrite~ reverbtab 44100;
#X obj 133 136 delread~ reverbtab 44100;
#X obj 280 16 r reverb_onoff;
#X obj 316 67 switch~;
#X obj 134 47 table reverbtab 8820;
#X connect 0 0 8 0;
#X connect 2 0 3 0;
#X connect 3 0 9 0;
#X connect 4 0 8 0;
#X connect 4 0 1 0;
#X connect 5 0 9 0;
#X connect 6 0 7 0;
#X connect 7 0 4 1;
#X connect 9 0 4 0;
#X connect 10 0 11 0;
#X restore 467 372 pd reverb;
#X obj 508 551 record;
#X obj 433 207 sig~;
#X obj 140 173 vibrato 3;
#X obj 84 194 vibrato 2;
#X obj 261 128 vibrato 5;
#X obj 199 153 vibrato 4;
#X obj 321 108 vibrato 6;
#X obj 383 86 vibrato 7;
#X obj 449 58 vibrato 8;
#X obj 46 175 multisynth1.1 2;
#X obj 102 155 multisynth1.1 3;
#X obj 162 132 multisynth1.1 4;
#X obj 225 109 multisynth1.1 5;
#X obj 285 87 multisynth1.1 6;
#X obj 347 64 multisynth1.1 7;
#X obj 413 37 multisynth1.1 8;
#X connect 1 0 9 0;
#X connect 1 0 12 0;
#X connect 1 0 13 0;
#X connect 2 0 15 0;
#X connect 3 0 2 0;
#X connect 5 0 0 0;
#X connect 5 0 0 1;
#X connect 5 0 14 0;
#X connect 5 0 8 0;
#X connect 6 0 15 0;
#X connect 8 0 4 0;
#X connect 9 0 5 0;
#X connect 10 0 1 0;
#X connect 11 0 10 0;
#X connect 12 0 13 0;
#X connect 12 0 9 0;
#X connect 13 0 9 0;
#X connect 15 0 1 1;
#X connect 16 0 1 0;
#X connect 17 0 1 0;
#X connect 18 0 1 0;
#X connect 19 0 1 0;
#X connect 20 0 1 0;
#X connect 21 0 1 0;
#X connect 22 0 1 0;
#X connect 23 0 17 0;
#X connect 24 0 16 0;
#X connect 25 0 19 0;
#X connect 26 0 18 0;
#X connect 27 0 20 0;
#X connect 28 0 21 0;
#X connect 29 0 22 0;
