#N canvas 0 22 450 300 10;
#X obj 82 50 table sinetable;
#X obj 82 77 table triangletable;
#X obj 84 103 table squaretable;
#X obj 85 128 table sawtable;
#N canvas 386 47 450 300 launchsine 0;
#X obj 108 31 inlet;
#X msg 113 77 \; sinetable sinesum 2051 0 1;
#X connect 0 0 1 0;
#X restore 396 75 pd launchsine;
#N canvas 0 22 683 603 launchsaw 0;
#X obj 139 69 inlet;
#X obj 124 100 trigger b b;
#X msg 24 179 \; sawtable normalize 1;
#X msg 179 130 \; sawtable sinesum 2051 1 0.5 0.333333 0.25 0.2 0.166667
0.142857 0.125 0.111111 0.1 0.0909091 0.0833333 0.0769231 0.0714286
0.0666667 0.0625 0.0588235 0.0555556 0.0526316 0.05 0.047619 0.0454545
0.0434783 0.0416667 0.04 0.0384615 0.037037 0.0357143 0.0344828 0.0333333
0.0322581 0.03125 0.030303 0.0294118 0.0285714 0.0277778 0.027027 0.0263158
0.025641 0.025 0.0243902 0.0238095 0.0232558 0.0227273 0.0222222 0.0217391
0.0212766 0.0208333 0.0204082 0.02 0.0196078 0.0192308 0.0188679 0.0185185
0.0181818 0.0178571 0.0175439 0.0172414 0.0169492 0.0166667 0.0163934
0.016129 0.015873 0.015625 0.0153846 0.0151515 0.0149254 0.0147059
0.0144928 0.0142857 0.0140845 0.0138889 0.0136986 0.0135135 0.0133333
0.0131579 0.012987 0.0128205 0.0126582 0.0125 0.0123457 0.0121951 0.0120482
0.0119048 0.0117647 0.0116279 0.0114943 0.0113636 0.011236 0.0111111
0.010989 0.0108696 0.0107527 0.0106383 0.0105263 0.0104167 0.0103093
0.0102041 0.010101;
#X connect 0 0 1 0;
#X connect 1 0 2 0;
#X connect 1 1 3 0;
#X restore 396 160 pd launchsaw;
#N canvas 312 22 625 336 launchtriangle 0;
#X obj 139 69 inlet;
#X obj 124 100 trigger b b;
#X msg 16 182 \; triangletable normalize 1;
#X msg 198 129 \; triangletable sinesum 2051 1 0 -0.111111 0 0.04 0
-0.0204082 0 0.0123457 0 -0.00826446 0 0.00591716 0 -0.00444444 0 0.00346021
0 -0.00277008 0 0.00226757 0 -0.00189036 0 0.0016 0 -0.00137174 0 0.00118906
0 -0.00104058 0 0.000918274 0 -0.000816327 0 0.00073046 0 -0.000657462
0 0.000594884 0 -0.000540833 0 0.000493827 0 -0.000452694 0 0.000416493
;
#X connect 0 0 1 0;
#X connect 1 0 2 0;
#X connect 1 1 3 0;
#X restore 395 104 pd launchtriangle;
#N canvas 0 22 683 603 launchsquare 0;
#X obj 139 69 inlet;
#X obj 124 100 trigger b b;
#X msg 22 184 \; squaretable normalize 1;
#X msg 178 133 \; squaretable sinesum 2051 1 0 0.333333 0 0.2 0 0.142857
0 0.111111 0 0.0909091 0 0.0769231 0 0.0666667 0 0.0588235 0 0.0526316
0 0.047619 0 0.0434783 0 0.04 0 0.037037 0 0.0344828 0 0.0322581 0
0.030303 0 0.0285714 0 0.027027 0 0.025641 0 0.0243902 0 0.0232558
0 0.0222222 0 0.0212766 0 0.0204082 0 0.0196078 0 0.0188679 0 0.0181818
0 0.0175439 0 0.0169492 0 0.0163934 0 0.015873 0 0.0153846 0 0.0149254
0 0.0144928 0 0.0140845 0 0.0136986 0 0.0133333 0 0.012987 0 0.0126582
0 0.0123457 0 0.0120482 0 0.0117647 0 0.0114943 0 0.011236 0 0.010989
0 0.0107527 0 0.0105263 0 0.0103093;
#X connect 0 0 1 0;
#X connect 1 0 2 0;
#X connect 1 1 3 0;
#X restore 396 134 pd launchsquare;
#X obj 336 37 loadbang;
#X connect 8 0 4 0;
#X connect 8 0 6 0;
#X connect 8 0 7 0;
#X connect 8 0 5 0;
