#N canvas 4 289 640 505 10;
#X obj 23 117 inlet~;
#X obj 43 316 outlet~;
#N canvas 752 96 505 436 nottremolo 0;
#X obj 23 117 inlet~;
#X obj 43 316 outlet~;
#X obj 341 122 r tremolo_onoff;
#X obj 334 199 switch~;
#X obj 338 152 - 1;
#X obj 341 181 abs;
#X connect 0 0 1 0;
#X connect 2 0 4 0;
#X connect 4 0 5 0;
#X connect 5 0 3 0;
#X restore 115 242 pd nottremolo;
#N canvas 238 100 505 436 tremololo 1;
#X obj 23 117 inlet~;
#X obj 43 316 outlet~;
#X obj 98 82 mtof;
#X obj 75 3 r tremolospeed\$1;
#X obj 219 5 r tremolodepth\$1;
#X obj 102 218 +~;
#X obj 200 112 mtof;
#X obj 212 63 - 100;
#X obj 141 151 print newfreq;
#X obj 95 48 - 30;
#X obj 341 122 r tremolo_onoff;
#X obj 336 177 switch~;
#X obj 109 110 sig~;
#X obj 140 199 waveformselector;
#X obj 291 24 r tremolowaveform\$1;
#X obj 304 55 r tremolowaveformx\$1;
#X obj 232 147 - 1;
#X connect 0 0 5 0;
#X connect 2 0 12 0;
#X connect 3 0 9 0;
#X connect 4 0 7 0;
#X connect 5 0 1 0;
#X connect 6 0 8 0;
#X connect 6 0 13 1;
#X connect 7 0 6 0;
#X connect 9 0 2 0;
#X connect 10 0 11 0;
#X connect 12 0 13 0;
#X connect 13 0 5 1;
#X connect 14 0 16 0;
#X connect 15 0 13 3;
#X connect 16 0 13 2;
#X restore 23 224 pd tremololo;
#X connect 0 0 3 0;
#X connect 0 0 2 0;
#X connect 2 0 1 0;
#X connect 3 0 1 0;
