#N canvas 481 383 567 365 10;
#X obj 29 43 inlet~;
#X obj 40 205 outlet~;
#N canvas 0 22 464 387 vib 1;
#X obj 12 328 outlet~;
#X obj 15 23 inlet~;
#X obj 42 183 sig~;
#X obj 298 54 r vibrato_onoff;
#X obj 315 220 switch~;
#X obj 66 20 r vibspeed\$1;
#X obj 134 45 r vibdepth\$1;
#X obj 165 64 r vibwaveform\$1;
#X obj 203 82 r vibwaveformx\$1;
#X obj 50 140 - 30;
#X obj 48 161 mtof;
#X obj 45 101 loadbang;
#X obj 50 121 0.2;
#X obj 88 122 100;
#X obj 90 162 / -200;
#X obj 90 273 snapshot~;
#X obj 109 251 bng 15 250 50 0 empty empty empty 17 7 0 10 -262144
-1 -1;
#X obj 104 293 print;
#X obj 12 296 *~;
#X obj 33 270 +~ 1;
#X obj 145 246 metro 100;
#X obj 48 211 waveformselector 1;
#X obj 138 163 - 1;
#X connect 1 0 18 0;
#X connect 2 0 21 0;
#X connect 3 0 4 0;
#X connect 5 0 9 0;
#X connect 6 0 14 0;
#X connect 7 0 22 0;
#X connect 8 0 21 3;
#X connect 9 0 10 0;
#X connect 10 0 2 0;
#X connect 11 0 12 0;
#X connect 11 0 13 0;
#X connect 12 0 2 0;
#X connect 13 0 14 0;
#X connect 14 0 21 1;
#X connect 15 0 17 0;
#X connect 16 0 15 0;
#X connect 16 0 20 0;
#X connect 18 0 0 0;
#X connect 19 0 18 1;
#X connect 19 0 15 0;
#X connect 20 0 15 0;
#X connect 21 0 19 0;
#X connect 22 0 21 2;
#X restore 46 129 pd vib;
#N canvas 0 22 450 300 notvib 0;
#X obj 29 43 inlet~;
#X obj 40 205 outlet~;
#X obj 292 225 switch~;
#X obj 287 103 r vibrato_onoff;
#X obj 284 165 - 1;
#X obj 292 200 abs;
#X connect 0 0 1 0;
#X connect 3 0 4 0;
#X connect 4 0 5 0;
#X connect 5 0 2 0;
#X restore 160 75 pd notvib;
#X connect 0 0 3 0;
#X connect 0 0 2 0;
#X connect 2 0 1 0;
#X connect 3 0 1 0;
