#N canvas 477 57 741 647 10;
#X obj 327 72 route 1 2 3 4;
#X obj 369 35 inlet;
#X obj 75 355 outlet~;
#X msg 209 120 set sinetable;
#X msg 297 120 set triangletable;
#X msg 414 120 set squaretable;
#X msg 522 120 set sawtable;
#X obj 190 218 tabosc4~ sinetable;
#X obj 67 54 inlet~;
#X connect 0 0 3 0;
#X connect 0 1 4 0;
#X connect 0 2 5 0;
#X connect 0 3 6 0;
#X connect 1 0 0 0;
#X connect 3 0 7 0;
#X connect 4 0 7 0;
#X connect 5 0 7 0;
#X connect 6 0 7 0;
#X connect 7 0 2 0;
#X connect 8 0 7 0;
